<svg width="327" height="56" viewBox="0 0 327 56" fill="none" xmlns="http://www.w3.org/2000/svg">
<rect x="1" y="1" width="325" height="54" rx="19" fill="white"/>
<path d="M89.6711 26.3679H88.9998V26.3333H81.4998V29.6666H86.2094C85.5223 31.607 83.6761 33 81.4998 33C78.7386 33 76.4998 30.7612 76.4998 28C76.4998 25.2387 78.7386 23 81.4998 23C82.7744 23 83.934 23.4808 84.8169 24.2662L87.174 21.9091C85.6857 20.522 83.6948 19.6666 81.4998 19.6666C76.8978 19.6666 73.1665 23.3979 73.1665 28C73.1665 32.602 76.8978 36.3333 81.4998 36.3333C86.1019 36.3333 89.8332 32.602 89.8332 28C89.8332 27.4412 89.7757 26.8958 89.6711 26.3679Z" fill="#FFC107"/>
<path d="M74.1274 24.1212L76.8654 26.1291C77.6062 24.295 79.4004 23 81.4999 23C82.7745 23 83.9341 23.4808 84.817 24.2662L87.1741 21.9091C85.6858 20.522 83.6949 19.6666 81.4999 19.6666C78.2991 19.6666 75.5233 21.4737 74.1274 24.1212Z" fill="#FF3D00"/>
<path d="M81.4998 36.3334C83.6523 36.3334 85.6081 35.5096 87.0869 34.17L84.5077 31.9875C83.6429 32.6452 82.5862 33.0009 81.4998 33C79.3323 33 77.4919 31.618 76.7986 29.6892L74.0811 31.783C75.4602 34.4817 78.2611 36.3334 81.4998 36.3334Z" fill="#4CAF50"/>
<path d="M89.6713 26.368H89V26.3334H81.5V29.6667H86.2096C85.8809 30.5902 85.2889 31.3972 84.5067 31.988L84.5079 31.9871L87.0871 34.1696C86.9046 34.3355 89.8333 32.1667 89.8333 28C89.8333 27.4413 89.7758 26.8959 89.6713 26.368Z" fill="#1976D2"/>
<path d="M113.034 33.16C112.042 33.16 111.21 33.016 110.538 32.728C109.877 32.4293 109.37 32.0453 109.018 31.576C108.677 31.096 108.496 30.5947 108.474 30.072C108.474 29.976 108.506 29.896 108.57 29.832C108.634 29.768 108.714 29.736 108.81 29.736H110.234C110.373 29.736 110.474 29.768 110.538 29.832C110.613 29.8853 110.677 29.9547 110.73 30.04C110.794 30.2427 110.917 30.4453 111.098 30.648C111.28 30.84 111.525 31 111.834 31.128C112.154 31.256 112.554 31.32 113.034 31.32C113.802 31.32 114.373 31.192 114.746 30.936C115.13 30.68 115.322 30.3333 115.322 29.896C115.322 29.5867 115.221 29.3413 115.018 29.16C114.816 28.968 114.501 28.7973 114.074 28.648C113.658 28.488 113.104 28.3227 112.41 28.152C111.61 27.96 110.938 27.7307 110.394 27.464C109.861 27.1867 109.456 26.84 109.178 26.424C108.912 26.008 108.778 25.48 108.778 24.84C108.778 24.2213 108.944 23.672 109.274 23.192C109.616 22.712 110.096 22.3333 110.714 22.056C111.344 21.7787 112.09 21.64 112.954 21.64C113.648 21.64 114.261 21.736 114.794 21.928C115.328 22.1093 115.77 22.3547 116.122 22.664C116.474 22.9627 116.741 23.288 116.922 23.64C117.114 23.9813 117.216 24.3173 117.226 24.648C117.226 24.7333 117.194 24.8133 117.13 24.888C117.077 24.952 116.997 24.984 116.89 24.984H115.402C115.317 24.984 115.232 24.9627 115.146 24.92C115.061 24.8773 114.992 24.7973 114.938 24.68C114.874 24.3493 114.666 24.0667 114.314 23.832C113.962 23.5973 113.509 23.48 112.954 23.48C112.378 23.48 111.914 23.5867 111.562 23.8C111.21 24.0133 111.034 24.344 111.034 24.792C111.034 25.0907 111.12 25.3413 111.29 25.544C111.472 25.736 111.754 25.9067 112.138 26.056C112.533 26.2053 113.05 26.3653 113.69 26.536C114.597 26.7387 115.338 26.9733 115.914 27.24C116.49 27.5067 116.912 27.848 117.178 28.264C117.445 28.6693 117.578 29.1867 117.578 29.816C117.578 30.52 117.386 31.1227 117.002 31.624C116.629 32.1147 116.101 32.4933 115.418 32.76C114.736 33.0267 113.941 33.16 113.034 33.16ZM119.604 33C119.497 33 119.407 32.9627 119.332 32.888C119.257 32.8133 119.22 32.7227 119.22 32.616V25.064C119.22 24.9573 119.257 24.8667 119.332 24.792C119.407 24.7173 119.497 24.68 119.604 24.68H120.932C121.049 24.68 121.14 24.7173 121.204 24.792C121.279 24.8667 121.316 24.9573 121.316 25.064V32.616C121.316 32.7227 121.279 32.8133 121.204 32.888C121.14 32.9627 121.049 33 120.932 33H119.604ZM119.54 23.304C119.423 23.304 119.327 23.272 119.252 23.208C119.188 23.1333 119.156 23.0373 119.156 22.92V21.768C119.156 21.6613 119.188 21.5707 119.252 21.496C119.327 21.4213 119.423 21.384 119.54 21.384H120.996C121.113 21.384 121.209 21.4213 121.284 21.496C121.359 21.5707 121.396 21.6613 121.396 21.768V22.92C121.396 23.0373 121.359 23.1333 121.284 23.208C121.209 23.272 121.113 23.304 120.996 23.304H119.54ZM127.199 36.52C126.42 36.52 125.78 36.4187 125.279 36.216C124.777 36.0133 124.383 35.768 124.095 35.48C123.807 35.192 123.599 34.904 123.471 34.616C123.353 34.3387 123.289 34.12 123.279 33.96C123.268 33.8533 123.3 33.7573 123.375 33.672C123.46 33.5973 123.556 33.56 123.663 33.56H125.055C125.161 33.56 125.247 33.5813 125.311 33.624C125.375 33.6773 125.428 33.768 125.471 33.896C125.535 34.0347 125.62 34.184 125.727 34.344C125.833 34.504 125.993 34.6373 126.207 34.744C126.431 34.8613 126.735 34.92 127.119 34.92C127.524 34.92 127.865 34.8613 128.143 34.744C128.42 34.6267 128.628 34.4293 128.767 34.152C128.916 33.8747 128.991 33.4907 128.991 33V31.912C128.735 32.2213 128.404 32.472 127.999 32.664C127.604 32.856 127.113 32.952 126.527 32.952C125.951 32.952 125.455 32.8613 125.039 32.68C124.623 32.488 124.276 32.2267 123.999 31.896C123.721 31.5547 123.508 31.1547 123.359 30.696C123.22 30.2373 123.14 29.7307 123.119 29.176C123.108 28.888 123.108 28.6 123.119 28.312C123.14 27.7787 123.22 27.2827 123.359 26.824C123.497 26.3653 123.705 25.9653 123.983 25.624C124.271 25.272 124.623 25 125.039 24.808C125.455 24.616 125.951 24.52 126.527 24.52C127.135 24.52 127.647 24.6373 128.063 24.872C128.479 25.096 128.82 25.3787 129.087 25.72V25.08C129.087 24.9627 129.124 24.8667 129.199 24.792C129.273 24.7173 129.364 24.68 129.471 24.68H130.767C130.873 24.68 130.964 24.7173 131.039 24.792C131.113 24.8667 131.151 24.9627 131.151 25.08L131.167 32.792C131.167 33.56 131.023 34.2213 130.735 34.776C130.447 35.3307 130.009 35.7573 129.423 36.056C128.847 36.3653 128.105 36.52 127.199 36.52ZM127.119 31.256C127.556 31.256 127.908 31.16 128.175 30.968C128.441 30.776 128.639 30.5253 128.767 30.216C128.895 29.9067 128.969 29.592 128.991 29.272C129.001 29.1333 129.007 28.9573 129.007 28.744C129.007 28.5307 129.001 28.36 128.991 28.232C128.969 27.9013 128.895 27.5867 128.767 27.288C128.639 26.9787 128.441 26.728 128.175 26.536C127.908 26.3333 127.556 26.232 127.119 26.232C126.681 26.232 126.329 26.3333 126.063 26.536C125.796 26.728 125.604 26.984 125.487 27.304C125.38 27.624 125.316 27.976 125.295 28.36C125.273 28.616 125.273 28.8773 125.295 29.144C125.316 29.5173 125.38 29.8693 125.487 30.2C125.604 30.52 125.796 30.776 126.063 30.968C126.329 31.16 126.681 31.256 127.119 31.256ZM133.682 33C133.576 33 133.485 32.9627 133.41 32.888C133.336 32.8133 133.298 32.7227 133.298 32.616V25.064C133.298 24.9573 133.336 24.8667 133.41 24.792C133.485 24.7173 133.576 24.68 133.682 24.68H134.994C135.101 24.68 135.192 24.7173 135.266 24.792C135.341 24.8667 135.378 24.9573 135.378 25.064V25.72C135.656 25.3787 136.008 25.096 136.434 24.872C136.872 24.6373 137.41 24.52 138.05 24.52C138.701 24.52 139.266 24.6693 139.746 24.968C140.226 25.256 140.594 25.6667 140.85 26.2C141.117 26.7333 141.25 27.3733 141.25 28.12V32.616C141.25 32.7227 141.213 32.8133 141.138 32.888C141.064 32.9627 140.973 33 140.866 33H139.458C139.352 33 139.261 32.9627 139.186 32.888C139.112 32.8133 139.074 32.7227 139.074 32.616V28.216C139.074 27.5973 138.92 27.112 138.61 26.76C138.312 26.408 137.874 26.232 137.298 26.232C136.744 26.232 136.301 26.408 135.97 26.76C135.64 27.112 135.474 27.5973 135.474 28.216V32.616C135.474 32.7227 135.437 32.8133 135.362 32.888C135.288 32.9627 135.197 33 135.09 33H133.682ZM147.323 33C147.216 33 147.125 32.9627 147.051 32.888C146.976 32.8133 146.939 32.7227 146.939 32.616V25.064C146.939 24.9573 146.976 24.8667 147.051 24.792C147.125 24.7173 147.216 24.68 147.323 24.68H148.651C148.768 24.68 148.859 24.7173 148.923 24.792C148.997 24.8667 149.035 24.9573 149.035 25.064V32.616C149.035 32.7227 148.997 32.8133 148.923 32.888C148.859 32.9627 148.768 33 148.651 33H147.323ZM147.259 23.304C147.141 23.304 147.045 23.272 146.971 23.208C146.907 23.1333 146.875 23.0373 146.875 22.92V21.768C146.875 21.6613 146.907 21.5707 146.971 21.496C147.045 21.4213 147.141 21.384 147.259 21.384H148.715C148.832 21.384 148.928 21.4213 149.003 21.496C149.077 21.5707 149.115 21.6613 149.115 21.768V22.92C149.115 23.0373 149.077 23.1333 149.003 23.208C148.928 23.272 148.832 23.304 148.715 23.304H147.259ZM151.87 33C151.763 33 151.672 32.9627 151.598 32.888C151.523 32.8133 151.486 32.7227 151.486 32.616V25.064C151.486 24.9573 151.523 24.8667 151.598 24.792C151.672 24.7173 151.763 24.68 151.87 24.68H153.182C153.288 24.68 153.379 24.7173 153.454 24.792C153.528 24.8667 153.566 24.9573 153.566 25.064V25.72C153.843 25.3787 154.195 25.096 154.622 24.872C155.059 24.6373 155.598 24.52 156.238 24.52C156.888 24.52 157.454 24.6693 157.934 24.968C158.414 25.256 158.782 25.6667 159.038 26.2C159.304 26.7333 159.438 27.3733 159.438 28.12V32.616C159.438 32.7227 159.4 32.8133 159.326 32.888C159.251 32.9627 159.16 33 159.054 33H157.646C157.539 33 157.448 32.9627 157.374 32.888C157.299 32.8133 157.262 32.7227 157.262 32.616V28.216C157.262 27.5973 157.107 27.112 156.798 26.76C156.499 26.408 156.062 26.232 155.486 26.232C154.931 26.232 154.488 26.408 154.158 26.76C153.827 27.112 153.662 27.5973 153.662 28.216V32.616C153.662 32.7227 153.624 32.8133 153.55 32.888C153.475 32.9627 153.384 33 153.278 33H151.87ZM167.039 33C166.89 33 166.778 32.9627 166.703 32.888C166.628 32.8133 166.564 32.7173 166.511 32.6L164.223 25.176C164.212 25.1227 164.207 25.0747 164.207 25.032C164.207 24.936 164.239 24.856 164.303 24.792C164.378 24.7173 164.458 24.68 164.543 24.68H165.727C165.855 24.68 165.956 24.7173 166.031 24.792C166.106 24.856 166.148 24.92 166.159 24.984L167.727 30.28L169.391 25.032C169.412 24.9573 169.46 24.8827 169.535 24.808C169.61 24.7227 169.722 24.68 169.871 24.68H170.671C170.82 24.68 170.932 24.7227 171.007 24.808C171.082 24.8827 171.13 24.9573 171.151 25.032L172.815 30.28L174.383 24.984C174.394 24.92 174.431 24.856 174.495 24.792C174.57 24.7173 174.671 24.68 174.799 24.68H175.983C176.079 24.68 176.159 24.7173 176.223 24.792C176.298 24.856 176.335 24.936 176.335 25.032C176.335 25.0747 176.324 25.1227 176.303 25.176L174.015 32.6C173.983 32.7173 173.924 32.8133 173.839 32.888C173.764 32.9627 173.652 33 173.503 33H172.463C172.314 33 172.196 32.9627 172.111 32.888C172.026 32.8133 171.967 32.7173 171.935 32.6L170.271 27.544L168.607 32.6C168.564 32.7173 168.5 32.8133 168.415 32.888C168.34 32.9627 168.223 33 168.063 33H167.039ZM178.276 33C178.169 33 178.079 32.9627 178.004 32.888C177.929 32.8133 177.892 32.7227 177.892 32.616V25.064C177.892 24.9573 177.929 24.8667 178.004 24.792C178.079 24.7173 178.169 24.68 178.276 24.68H179.604C179.721 24.68 179.812 24.7173 179.876 24.792C179.951 24.8667 179.988 24.9573 179.988 25.064V32.616C179.988 32.7227 179.951 32.8133 179.876 32.888C179.812 32.9627 179.721 33 179.604 33H178.276ZM178.212 23.304C178.095 23.304 177.999 23.272 177.924 23.208C177.86 23.1333 177.828 23.0373 177.828 22.92V21.768C177.828 21.6613 177.86 21.5707 177.924 21.496C177.999 21.4213 178.095 21.384 178.212 21.384H179.668C179.785 21.384 179.881 21.4213 179.956 21.496C180.031 21.5707 180.068 21.6613 180.068 21.768V22.92C180.068 23.0373 180.031 23.1333 179.956 23.208C179.881 23.272 179.785 23.304 179.668 23.304H178.212ZM185.871 33C185.231 33 184.692 32.888 184.255 32.664C183.817 32.44 183.492 32.1093 183.279 31.672C183.065 31.224 182.959 30.6693 182.959 30.008V26.376H181.695C181.588 26.376 181.497 26.3387 181.423 26.264C181.348 26.1893 181.311 26.0987 181.311 25.992V25.064C181.311 24.9573 181.348 24.8667 181.423 24.792C181.497 24.7173 181.588 24.68 181.695 24.68H182.959V22.024C182.959 21.9173 182.991 21.8267 183.055 21.752C183.129 21.6773 183.225 21.64 183.343 21.64H184.639C184.745 21.64 184.836 21.6773 184.911 21.752C184.985 21.8267 185.023 21.9173 185.023 22.024V24.68H187.023C187.129 24.68 187.22 24.7173 187.295 24.792C187.369 24.8667 187.407 24.9573 187.407 25.064V25.992C187.407 26.0987 187.369 26.1893 187.295 26.264C187.22 26.3387 187.129 26.376 187.023 26.376H185.023V29.848C185.023 30.2853 185.097 30.6267 185.247 30.872C185.407 31.1173 185.679 31.24 186.063 31.24H187.167C187.273 31.24 187.364 31.2773 187.439 31.352C187.513 31.4267 187.551 31.5173 187.551 31.624V32.616C187.551 32.7227 187.513 32.8133 187.439 32.888C187.364 32.9627 187.273 33 187.167 33H185.871ZM189.37 33C189.263 33 189.173 32.9627 189.098 32.888C189.023 32.8133 188.986 32.7227 188.986 32.616V22.024C188.986 21.9173 189.023 21.8267 189.098 21.752C189.173 21.6773 189.263 21.64 189.37 21.64H190.794C190.911 21.64 191.002 21.6773 191.066 21.752C191.141 21.8267 191.178 21.9173 191.178 22.024V25.672C191.466 25.3307 191.818 25.0533 192.234 24.84C192.65 24.6267 193.162 24.52 193.77 24.52C194.421 24.52 194.986 24.6693 195.466 24.968C195.957 25.256 196.335 25.6667 196.602 26.2C196.869 26.7333 197.002 27.3733 197.002 28.12V32.616C197.002 32.7227 196.965 32.8133 196.89 32.888C196.815 32.9627 196.725 33 196.618 33H195.178C195.071 33 194.981 32.9627 194.906 32.888C194.831 32.8133 194.794 32.7227 194.794 32.616V28.216C194.794 27.5973 194.639 27.112 194.33 26.76C194.031 26.408 193.594 26.232 193.018 26.232C192.463 26.232 192.015 26.408 191.674 26.76C191.343 27.112 191.178 27.5973 191.178 28.216V32.616C191.178 32.7227 191.141 32.8133 191.066 32.888C191.002 32.9627 190.911 33 190.794 33H189.37ZM207.233 33.16C206.251 33.16 205.414 32.9893 204.721 32.648C204.038 32.3067 203.505 31.816 203.121 31.176C202.747 30.5253 202.545 29.752 202.513 28.856C202.502 28.3973 202.497 27.9067 202.497 27.384C202.497 26.8507 202.502 26.3493 202.513 25.88C202.545 24.9947 202.747 24.2373 203.121 23.608C203.505 22.9787 204.043 22.4933 204.737 22.152C205.441 21.8107 206.273 21.64 207.233 21.64C208.011 21.64 208.694 21.7467 209.281 21.96C209.867 22.1627 210.353 22.4293 210.737 22.76C211.131 23.08 211.425 23.4267 211.617 23.8C211.819 24.1733 211.926 24.52 211.937 24.84C211.947 24.936 211.921 25.016 211.857 25.08C211.793 25.144 211.707 25.176 211.601 25.176H209.953C209.846 25.176 209.766 25.1547 209.713 25.112C209.659 25.0693 209.611 25.0053 209.569 24.92C209.483 24.696 209.35 24.4773 209.169 24.264C208.987 24.04 208.742 23.8533 208.433 23.704C208.123 23.5547 207.723 23.48 207.233 23.48C206.507 23.48 205.926 23.672 205.489 24.056C205.062 24.44 204.833 25.0747 204.801 25.96C204.769 26.888 204.769 27.8267 204.801 28.776C204.833 29.6827 205.067 30.3333 205.505 30.728C205.953 31.1227 206.539 31.32 207.265 31.32C207.745 31.32 208.171 31.2347 208.545 31.064C208.929 30.8933 209.227 30.6267 209.441 30.264C209.665 29.9013 209.777 29.4373 209.777 28.872V28.376H207.825C207.718 28.376 207.627 28.3387 207.553 28.264C207.478 28.1893 207.441 28.0933 207.441 27.976V27.128C207.441 27.0107 207.478 26.9147 207.553 26.84C207.627 26.7653 207.718 26.728 207.825 26.728H211.649C211.766 26.728 211.857 26.7653 211.921 26.84C211.995 26.9147 212.033 27.0107 212.033 27.128V28.808C212.033 29.704 211.835 30.4773 211.441 31.128C211.057 31.7787 210.502 32.28 209.777 32.632C209.062 32.984 208.214 33.16 207.233 33.16ZM217.572 33.16C216.719 33.16 215.999 33.0107 215.412 32.712C214.836 32.4133 214.393 31.992 214.084 31.448C213.785 30.904 213.615 30.2693 213.572 29.544C213.561 29.352 213.556 29.1173 213.556 28.84C213.556 28.5627 213.561 28.328 213.572 28.136C213.615 27.4 213.791 26.7653 214.1 26.232C214.42 25.688 214.868 25.2667 215.444 24.968C216.031 24.6693 216.74 24.52 217.572 24.52C218.404 24.52 219.108 24.6693 219.684 24.968C220.271 25.2667 220.719 25.688 221.028 26.232C221.348 26.7653 221.529 27.4 221.572 28.136C221.583 28.328 221.588 28.5627 221.588 28.84C221.588 29.1173 221.583 29.352 221.572 29.544C221.529 30.2693 221.353 30.904 221.044 31.448C220.745 31.992 220.303 32.4133 219.716 32.712C219.14 33.0107 218.425 33.16 217.572 33.16ZM217.572 31.576C218.137 31.576 218.575 31.4 218.884 31.048C219.193 30.6853 219.364 30.1573 219.396 29.464C219.407 29.304 219.412 29.096 219.412 28.84C219.412 28.584 219.407 28.376 219.396 28.216C219.364 27.5333 219.193 27.0107 218.884 26.648C218.575 26.2853 218.137 26.104 217.572 26.104C217.007 26.104 216.569 26.2853 216.26 26.648C215.951 27.0107 215.78 27.5333 215.748 28.216C215.737 28.376 215.732 28.584 215.732 28.84C215.732 29.096 215.737 29.304 215.748 29.464C215.78 30.1573 215.951 30.6853 216.26 31.048C216.569 31.4 217.007 31.576 217.572 31.576ZM227.041 33.16C226.187 33.16 225.467 33.0107 224.881 32.712C224.305 32.4133 223.862 31.992 223.553 31.448C223.254 30.904 223.083 30.2693 223.041 29.544C223.03 29.352 223.025 29.1173 223.025 28.84C223.025 28.5627 223.03 28.328 223.041 28.136C223.083 27.4 223.259 26.7653 223.569 26.232C223.889 25.688 224.337 25.2667 224.913 24.968C225.499 24.6693 226.209 24.52 227.041 24.52C227.873 24.52 228.577 24.6693 229.153 24.968C229.739 25.2667 230.187 25.688 230.497 26.232C230.817 26.7653 230.998 27.4 231.041 28.136C231.051 28.328 231.057 28.5627 231.057 28.84C231.057 29.1173 231.051 29.352 231.041 29.544C230.998 30.2693 230.822 30.904 230.513 31.448C230.214 31.992 229.771 32.4133 229.185 32.712C228.609 33.0107 227.894 33.16 227.041 33.16ZM227.041 31.576C227.606 31.576 228.043 31.4 228.353 31.048C228.662 30.6853 228.833 30.1573 228.865 29.464C228.875 29.304 228.881 29.096 228.881 28.84C228.881 28.584 228.875 28.376 228.865 28.216C228.833 27.5333 228.662 27.0107 228.353 26.648C228.043 26.2853 227.606 26.104 227.041 26.104C226.475 26.104 226.038 26.2853 225.729 26.648C225.419 27.0107 225.249 27.5333 225.217 28.216C225.206 28.376 225.201 28.584 225.201 28.84C225.201 29.096 225.206 29.304 225.217 29.464C225.249 30.1573 225.419 30.6853 225.729 31.048C226.038 31.4 226.475 31.576 227.041 31.576ZM236.589 36.52C235.811 36.52 235.171 36.4187 234.669 36.216C234.168 36.0133 233.773 35.768 233.485 35.48C233.197 35.192 232.989 34.904 232.861 34.616C232.744 34.3387 232.68 34.12 232.669 33.96C232.659 33.8533 232.691 33.7573 232.765 33.672C232.851 33.5973 232.947 33.56 233.053 33.56H234.445C234.552 33.56 234.637 33.5813 234.701 33.624C234.765 33.6773 234.819 33.768 234.861 33.896C234.925 34.0347 235.011 34.184 235.117 34.344C235.224 34.504 235.384 34.6373 235.597 34.744C235.821 34.8613 236.125 34.92 236.509 34.92C236.915 34.92 237.256 34.8613 237.533 34.744C237.811 34.6267 238.019 34.4293 238.157 34.152C238.307 33.8747 238.381 33.4907 238.381 33V31.912C238.125 32.2213 237.795 32.472 237.389 32.664C236.995 32.856 236.504 32.952 235.917 32.952C235.341 32.952 234.845 32.8613 234.429 32.68C234.013 32.488 233.667 32.2267 233.389 31.896C233.112 31.5547 232.899 31.1547 232.749 30.696C232.611 30.2373 232.531 29.7307 232.509 29.176C232.499 28.888 232.499 28.6 232.509 28.312C232.531 27.7787 232.611 27.2827 232.749 26.824C232.888 26.3653 233.096 25.9653 233.373 25.624C233.661 25.272 234.013 25 234.429 24.808C234.845 24.616 235.341 24.52 235.917 24.52C236.525 24.52 237.037 24.6373 237.453 24.872C237.869 25.096 238.211 25.3787 238.477 25.72V25.08C238.477 24.9627 238.515 24.8667 238.589 24.792C238.664 24.7173 238.755 24.68 238.861 24.68H240.157C240.264 24.68 240.355 24.7173 240.429 24.792C240.504 24.8667 240.541 24.9627 240.541 25.08L240.557 32.792C240.557 33.56 240.413 34.2213 240.125 34.776C239.837 35.3307 239.4 35.7573 238.813 36.056C238.237 36.3653 237.496 36.52 236.589 36.52ZM236.509 31.256C236.947 31.256 237.299 31.16 237.565 30.968C237.832 30.776 238.029 30.5253 238.157 30.216C238.285 29.9067 238.36 29.592 238.381 29.272C238.392 29.1333 238.397 28.9573 238.397 28.744C238.397 28.5307 238.392 28.36 238.381 28.232C238.36 27.9013 238.285 27.5867 238.157 27.288C238.029 26.9787 237.832 26.728 237.565 26.536C237.299 26.3333 236.947 26.232 236.509 26.232C236.072 26.232 235.72 26.3333 235.453 26.536C235.187 26.728 234.995 26.984 234.877 27.304C234.771 27.624 234.707 27.976 234.685 28.36C234.664 28.616 234.664 28.8773 234.685 29.144C234.707 29.5173 234.771 29.8693 234.877 30.2C234.995 30.52 235.187 30.776 235.453 30.968C235.72 31.16 236.072 31.256 236.509 31.256ZM243.089 33C242.982 33 242.891 32.9627 242.817 32.888C242.742 32.8133 242.705 32.7227 242.705 32.616V22.024C242.705 21.9173 242.742 21.8267 242.817 21.752C242.891 21.6773 242.982 21.64 243.089 21.64H244.417C244.523 21.64 244.614 21.6773 244.689 21.752C244.763 21.8267 244.801 21.9173 244.801 22.024V32.616C244.801 32.7227 244.763 32.8133 244.689 32.888C244.614 32.9627 244.523 33 244.417 33H243.089ZM250.507 33.16C249.323 33.16 248.385 32.8187 247.691 32.136C246.998 31.4533 246.625 30.4827 246.571 29.224C246.561 29.1173 246.555 28.984 246.555 28.824C246.555 28.6533 246.561 28.52 246.571 28.424C246.614 27.624 246.795 26.9307 247.115 26.344C247.446 25.7573 247.899 25.3093 248.475 25C249.051 24.68 249.729 24.52 250.507 24.52C251.371 24.52 252.097 24.7013 252.683 25.064C253.27 25.416 253.713 25.912 254.011 26.552C254.31 27.1813 254.459 27.912 254.459 28.744V29.08C254.459 29.1867 254.422 29.2773 254.347 29.352C254.273 29.4267 254.177 29.464 254.059 29.464H248.747C248.747 29.464 248.747 29.48 248.747 29.512C248.747 29.544 248.747 29.5707 248.747 29.592C248.758 29.9653 248.827 30.312 248.955 30.632C249.094 30.9413 249.291 31.192 249.547 31.384C249.814 31.576 250.129 31.672 250.491 31.672C250.79 31.672 251.041 31.6293 251.243 31.544C251.446 31.448 251.611 31.3413 251.739 31.224C251.867 31.1067 251.958 31.0107 252.011 30.936C252.107 30.808 252.182 30.7333 252.235 30.712C252.299 30.68 252.39 30.664 252.507 30.664H253.883C253.99 30.664 254.075 30.696 254.139 30.76C254.214 30.824 254.246 30.904 254.235 31C254.225 31.1707 254.134 31.3787 253.963 31.624C253.803 31.8693 253.569 32.1093 253.259 32.344C252.95 32.5787 252.561 32.776 252.091 32.936C251.633 33.0853 251.105 33.16 250.507 33.16ZM248.747 28.12H252.283V28.072C252.283 27.656 252.214 27.2933 252.075 26.984C251.937 26.6747 251.734 26.4293 251.467 26.248C251.201 26.0667 250.881 25.976 250.507 25.976C250.134 25.976 249.814 26.0667 249.547 26.248C249.281 26.4293 249.078 26.6747 248.939 26.984C248.811 27.2933 248.747 27.656 248.747 28.072V28.12Z" fill="#0C092A"/>
<rect x="1" y="1" width="325" height="54" rx="19" stroke="#E6E6E6" stroke-width="2"/>
</svg>
