<svg width="327" height="56" viewBox="0 0 327 56" fill="none" xmlns="http://www.w3.org/2000/svg">
<rect width="327" height="56" rx="20" fill="black"/>
<path d="M102 6H71V50H102V6Z" fill="black"/>
<path d="M86.7099 20.8846C87.5675 20.8846 88.6426 20.3048 89.2827 19.5318C89.8625 18.8312 90.2853 17.8528 90.2853 16.8744C90.2853 16.7416 90.2732 16.6087 90.249 16.5C89.2948 16.5362 88.1473 17.1402 87.4588 17.9495C86.9153 18.5655 86.4201 19.5318 86.4201 20.5223C86.4201 20.6672 86.4442 20.8121 86.4563 20.8605C86.5167 20.8725 86.6133 20.8846 86.7099 20.8846ZM83.6902 35.5C84.8619 35.5 85.3813 34.7149 86.8428 34.7149C88.3285 34.7149 88.6546 35.4758 89.9592 35.4758C91.2395 35.4758 92.0971 34.2921 92.9064 33.1325C93.8123 31.8039 94.1867 30.4994 94.2109 30.439C94.1264 30.4148 91.6743 29.4123 91.6743 26.5979C91.6743 24.158 93.607 23.0588 93.7157 22.9743C92.4353 21.1383 90.4906 21.09 89.9592 21.09C88.5218 21.09 87.3501 21.9596 86.6133 21.9596C85.8161 21.9596 84.7653 21.1383 83.5211 21.1383C81.1537 21.1383 78.75 23.095 78.75 26.7912C78.75 29.0861 79.6438 31.514 80.743 33.0842C81.6852 34.4129 82.5065 35.5 83.6902 35.5Z" fill="white"/>
<path d="M123.37 33.16C122.378 33.16 121.546 33.016 120.874 32.728C120.213 32.4293 119.706 32.0453 119.354 31.576C119.013 31.096 118.832 30.5947 118.81 30.072C118.81 29.976 118.842 29.896 118.906 29.832C118.97 29.768 119.05 29.736 119.146 29.736H120.57C120.709 29.736 120.81 29.768 120.874 29.832C120.949 29.8853 121.013 29.9547 121.066 30.04C121.13 30.2427 121.253 30.4453 121.434 30.648C121.616 30.84 121.861 31 122.17 31.128C122.49 31.256 122.89 31.32 123.37 31.32C124.138 31.32 124.709 31.192 125.082 30.936C125.466 30.68 125.658 30.3333 125.658 29.896C125.658 29.5867 125.557 29.3413 125.354 29.16C125.152 28.968 124.837 28.7973 124.41 28.648C123.994 28.488 123.44 28.3227 122.746 28.152C121.946 27.96 121.274 27.7307 120.73 27.464C120.197 27.1867 119.792 26.84 119.514 26.424C119.248 26.008 119.114 25.48 119.114 24.84C119.114 24.2213 119.28 23.672 119.61 23.192C119.952 22.712 120.432 22.3333 121.05 22.056C121.68 21.7787 122.426 21.64 123.29 21.64C123.984 21.64 124.597 21.736 125.13 21.928C125.664 22.1093 126.106 22.3547 126.458 22.664C126.81 22.9627 127.077 23.288 127.258 23.64C127.45 23.9813 127.552 24.3173 127.562 24.648C127.562 24.7333 127.53 24.8133 127.466 24.888C127.413 24.952 127.333 24.984 127.226 24.984H125.738C125.653 24.984 125.568 24.9627 125.482 24.92C125.397 24.8773 125.328 24.7973 125.274 24.68C125.21 24.3493 125.002 24.0667 124.65 23.832C124.298 23.5973 123.845 23.48 123.29 23.48C122.714 23.48 122.25 23.5867 121.898 23.8C121.546 24.0133 121.37 24.344 121.37 24.792C121.37 25.0907 121.456 25.3413 121.626 25.544C121.808 25.736 122.09 25.9067 122.474 26.056C122.869 26.2053 123.386 26.3653 124.026 26.536C124.933 26.7387 125.674 26.9733 126.25 27.24C126.826 27.5067 127.248 27.848 127.514 28.264C127.781 28.6693 127.914 29.1867 127.914 29.816C127.914 30.52 127.722 31.1227 127.338 31.624C126.965 32.1147 126.437 32.4933 125.754 32.76C125.072 33.0267 124.277 33.16 123.37 33.16ZM129.94 33C129.833 33 129.743 32.9627 129.668 32.888C129.593 32.8133 129.556 32.7227 129.556 32.616V25.064C129.556 24.9573 129.593 24.8667 129.668 24.792C129.743 24.7173 129.833 24.68 129.94 24.68H131.268C131.385 24.68 131.476 24.7173 131.54 24.792C131.615 24.8667 131.652 24.9573 131.652 25.064V32.616C131.652 32.7227 131.615 32.8133 131.54 32.888C131.476 32.9627 131.385 33 131.268 33H129.94ZM129.876 23.304C129.759 23.304 129.663 23.272 129.588 23.208C129.524 23.1333 129.492 23.0373 129.492 22.92V21.768C129.492 21.6613 129.524 21.5707 129.588 21.496C129.663 21.4213 129.759 21.384 129.876 21.384H131.332C131.449 21.384 131.545 21.4213 131.62 21.496C131.695 21.5707 131.732 21.6613 131.732 21.768V22.92C131.732 23.0373 131.695 23.1333 131.62 23.208C131.545 23.272 131.449 23.304 131.332 23.304H129.876ZM137.535 36.52C136.756 36.52 136.116 36.4187 135.615 36.216C135.113 36.0133 134.719 35.768 134.431 35.48C134.143 35.192 133.935 34.904 133.807 34.616C133.689 34.3387 133.625 34.12 133.615 33.96C133.604 33.8533 133.636 33.7573 133.711 33.672C133.796 33.5973 133.892 33.56 133.999 33.56H135.391C135.497 33.56 135.583 33.5813 135.647 33.624C135.711 33.6773 135.764 33.768 135.807 33.896C135.871 34.0347 135.956 34.184 136.063 34.344C136.169 34.504 136.329 34.6373 136.543 34.744C136.767 34.8613 137.071 34.92 137.455 34.92C137.86 34.92 138.201 34.8613 138.479 34.744C138.756 34.6267 138.964 34.4293 139.103 34.152C139.252 33.8747 139.327 33.4907 139.327 33V31.912C139.071 32.2213 138.74 32.472 138.335 32.664C137.94 32.856 137.449 32.952 136.863 32.952C136.287 32.952 135.791 32.8613 135.375 32.68C134.959 32.488 134.612 32.2267 134.335 31.896C134.057 31.5547 133.844 31.1547 133.695 30.696C133.556 30.2373 133.476 29.7307 133.455 29.176C133.444 28.888 133.444 28.6 133.455 28.312C133.476 27.7787 133.556 27.2827 133.695 26.824C133.833 26.3653 134.041 25.9653 134.319 25.624C134.607 25.272 134.959 25 135.375 24.808C135.791 24.616 136.287 24.52 136.863 24.52C137.471 24.52 137.983 24.6373 138.399 24.872C138.815 25.096 139.156 25.3787 139.423 25.72V25.08C139.423 24.9627 139.46 24.8667 139.535 24.792C139.609 24.7173 139.7 24.68 139.807 24.68H141.103C141.209 24.68 141.3 24.7173 141.375 24.792C141.449 24.8667 141.487 24.9627 141.487 25.08L141.503 32.792C141.503 33.56 141.359 34.2213 141.071 34.776C140.783 35.3307 140.345 35.7573 139.759 36.056C139.183 36.3653 138.441 36.52 137.535 36.52ZM137.455 31.256C137.892 31.256 138.244 31.16 138.511 30.968C138.777 30.776 138.975 30.5253 139.103 30.216C139.231 29.9067 139.305 29.592 139.327 29.272C139.337 29.1333 139.343 28.9573 139.343 28.744C139.343 28.5307 139.337 28.36 139.327 28.232C139.305 27.9013 139.231 27.5867 139.103 27.288C138.975 26.9787 138.777 26.728 138.511 26.536C138.244 26.3333 137.892 26.232 137.455 26.232C137.017 26.232 136.665 26.3333 136.399 26.536C136.132 26.728 135.94 26.984 135.823 27.304C135.716 27.624 135.652 27.976 135.631 28.36C135.609 28.616 135.609 28.8773 135.631 29.144C135.652 29.5173 135.716 29.8693 135.823 30.2C135.94 30.52 136.132 30.776 136.399 30.968C136.665 31.16 137.017 31.256 137.455 31.256ZM144.018 33C143.911 33 143.821 32.9627 143.746 32.888C143.671 32.8133 143.634 32.7227 143.634 32.616V25.064C143.634 24.9573 143.671 24.8667 143.746 24.792C143.821 24.7173 143.911 24.68 144.018 24.68H145.33C145.437 24.68 145.527 24.7173 145.602 24.792C145.677 24.8667 145.714 24.9573 145.714 25.064V25.72C145.991 25.3787 146.343 25.096 146.77 24.872C147.207 24.6373 147.746 24.52 148.386 24.52C149.037 24.52 149.602 24.6693 150.082 24.968C150.562 25.256 150.93 25.6667 151.186 26.2C151.453 26.7333 151.586 27.3733 151.586 28.12V32.616C151.586 32.7227 151.549 32.8133 151.474 32.888C151.399 32.9627 151.309 33 151.202 33H149.794C149.687 33 149.597 32.9627 149.522 32.888C149.447 32.8133 149.41 32.7227 149.41 32.616V28.216C149.41 27.5973 149.255 27.112 148.946 26.76C148.647 26.408 148.21 26.232 147.634 26.232C147.079 26.232 146.637 26.408 146.306 26.76C145.975 27.112 145.81 27.5973 145.81 28.216V32.616C145.81 32.7227 145.773 32.8133 145.698 32.888C145.623 32.9627 145.533 33 145.426 33H144.018ZM157.659 33C157.552 33 157.461 32.9627 157.387 32.888C157.312 32.8133 157.275 32.7227 157.275 32.616V25.064C157.275 24.9573 157.312 24.8667 157.387 24.792C157.461 24.7173 157.552 24.68 157.659 24.68H158.987C159.104 24.68 159.195 24.7173 159.259 24.792C159.333 24.8667 159.371 24.9573 159.371 25.064V32.616C159.371 32.7227 159.333 32.8133 159.259 32.888C159.195 32.9627 159.104 33 158.987 33H157.659ZM157.595 23.304C157.477 23.304 157.381 23.272 157.307 23.208C157.243 23.1333 157.211 23.0373 157.211 22.92V21.768C157.211 21.6613 157.243 21.5707 157.307 21.496C157.381 21.4213 157.477 21.384 157.595 21.384H159.051C159.168 21.384 159.264 21.4213 159.339 21.496C159.413 21.5707 159.451 21.6613 159.451 21.768V22.92C159.451 23.0373 159.413 23.1333 159.339 23.208C159.264 23.272 159.168 23.304 159.051 23.304H157.595ZM162.206 33C162.099 33 162.008 32.9627 161.934 32.888C161.859 32.8133 161.822 32.7227 161.822 32.616V25.064C161.822 24.9573 161.859 24.8667 161.934 24.792C162.008 24.7173 162.099 24.68 162.206 24.68H163.518C163.624 24.68 163.715 24.7173 163.79 24.792C163.864 24.8667 163.902 24.9573 163.902 25.064V25.72C164.179 25.3787 164.531 25.096 164.958 24.872C165.395 24.6373 165.934 24.52 166.574 24.52C167.224 24.52 167.79 24.6693 168.27 24.968C168.75 25.256 169.118 25.6667 169.374 26.2C169.64 26.7333 169.774 27.3733 169.774 28.12V32.616C169.774 32.7227 169.736 32.8133 169.662 32.888C169.587 32.9627 169.496 33 169.39 33H167.982C167.875 33 167.784 32.9627 167.71 32.888C167.635 32.8133 167.598 32.7227 167.598 32.616V28.216C167.598 27.5973 167.443 27.112 167.134 26.76C166.835 26.408 166.398 26.232 165.822 26.232C165.267 26.232 164.824 26.408 164.494 26.76C164.163 27.112 163.998 27.5973 163.998 28.216V32.616C163.998 32.7227 163.96 32.8133 163.886 32.888C163.811 32.9627 163.72 33 163.614 33H162.206ZM177.375 33C177.226 33 177.114 32.9627 177.039 32.888C176.964 32.8133 176.9 32.7173 176.847 32.6L174.559 25.176C174.548 25.1227 174.543 25.0747 174.543 25.032C174.543 24.936 174.575 24.856 174.639 24.792C174.714 24.7173 174.794 24.68 174.879 24.68H176.063C176.191 24.68 176.292 24.7173 176.367 24.792C176.442 24.856 176.484 24.92 176.495 24.984L178.063 30.28L179.727 25.032C179.748 24.9573 179.796 24.8827 179.871 24.808C179.946 24.7227 180.058 24.68 180.207 24.68H181.007C181.156 24.68 181.268 24.7227 181.343 24.808C181.418 24.8827 181.466 24.9573 181.487 25.032L183.151 30.28L184.719 24.984C184.73 24.92 184.767 24.856 184.831 24.792C184.906 24.7173 185.007 24.68 185.135 24.68H186.319C186.415 24.68 186.495 24.7173 186.559 24.792C186.634 24.856 186.671 24.936 186.671 25.032C186.671 25.0747 186.66 25.1227 186.639 25.176L184.351 32.6C184.319 32.7173 184.26 32.8133 184.175 32.888C184.1 32.9627 183.988 33 183.839 33H182.799C182.65 33 182.532 32.9627 182.447 32.888C182.362 32.8133 182.303 32.7173 182.271 32.6L180.607 27.544L178.943 32.6C178.9 32.7173 178.836 32.8133 178.751 32.888C178.676 32.9627 178.559 33 178.399 33H177.375ZM188.612 33C188.505 33 188.415 32.9627 188.34 32.888C188.265 32.8133 188.228 32.7227 188.228 32.616V25.064C188.228 24.9573 188.265 24.8667 188.34 24.792C188.415 24.7173 188.505 24.68 188.612 24.68H189.94C190.057 24.68 190.148 24.7173 190.212 24.792C190.287 24.8667 190.324 24.9573 190.324 25.064V32.616C190.324 32.7227 190.287 32.8133 190.212 32.888C190.148 32.9627 190.057 33 189.94 33H188.612ZM188.548 23.304C188.431 23.304 188.335 23.272 188.26 23.208C188.196 23.1333 188.164 23.0373 188.164 22.92V21.768C188.164 21.6613 188.196 21.5707 188.26 21.496C188.335 21.4213 188.431 21.384 188.548 21.384H190.004C190.121 21.384 190.217 21.4213 190.292 21.496C190.367 21.5707 190.404 21.6613 190.404 21.768V22.92C190.404 23.0373 190.367 23.1333 190.292 23.208C190.217 23.272 190.121 23.304 190.004 23.304H188.548ZM196.207 33C195.567 33 195.028 32.888 194.591 32.664C194.153 32.44 193.828 32.1093 193.615 31.672C193.401 31.224 193.295 30.6693 193.295 30.008V26.376H192.031C191.924 26.376 191.833 26.3387 191.759 26.264C191.684 26.1893 191.647 26.0987 191.647 25.992V25.064C191.647 24.9573 191.684 24.8667 191.759 24.792C191.833 24.7173 191.924 24.68 192.031 24.68H193.295V22.024C193.295 21.9173 193.327 21.8267 193.391 21.752C193.465 21.6773 193.561 21.64 193.679 21.64H194.975C195.081 21.64 195.172 21.6773 195.247 21.752C195.321 21.8267 195.359 21.9173 195.359 22.024V24.68H197.359C197.465 24.68 197.556 24.7173 197.631 24.792C197.705 24.8667 197.743 24.9573 197.743 25.064V25.992C197.743 26.0987 197.705 26.1893 197.631 26.264C197.556 26.3387 197.465 26.376 197.359 26.376H195.359V29.848C195.359 30.2853 195.433 30.6267 195.583 30.872C195.743 31.1173 196.015 31.24 196.399 31.24H197.503C197.609 31.24 197.7 31.2773 197.775 31.352C197.849 31.4267 197.887 31.5173 197.887 31.624V32.616C197.887 32.7227 197.849 32.8133 197.775 32.888C197.7 32.9627 197.609 33 197.503 33H196.207ZM199.706 33C199.599 33 199.509 32.9627 199.434 32.888C199.359 32.8133 199.322 32.7227 199.322 32.616V22.024C199.322 21.9173 199.359 21.8267 199.434 21.752C199.509 21.6773 199.599 21.64 199.706 21.64H201.13C201.247 21.64 201.338 21.6773 201.402 21.752C201.477 21.8267 201.514 21.9173 201.514 22.024V25.672C201.802 25.3307 202.154 25.0533 202.57 24.84C202.986 24.6267 203.498 24.52 204.106 24.52C204.757 24.52 205.322 24.6693 205.802 24.968C206.293 25.256 206.671 25.6667 206.938 26.2C207.205 26.7333 207.338 27.3733 207.338 28.12V32.616C207.338 32.7227 207.301 32.8133 207.226 32.888C207.151 32.9627 207.061 33 206.954 33H205.514C205.407 33 205.317 32.9627 205.242 32.888C205.167 32.8133 205.13 32.7227 205.13 32.616V28.216C205.13 27.5973 204.975 27.112 204.666 26.76C204.367 26.408 203.93 26.232 203.354 26.232C202.799 26.232 202.351 26.408 202.01 26.76C201.679 27.112 201.514 27.5973 201.514 28.216V32.616C201.514 32.7227 201.477 32.8133 201.402 32.888C201.338 32.9627 201.247 33 201.13 33H199.706ZM212.107 33C212.022 33 211.942 32.968 211.867 32.904C211.803 32.84 211.771 32.76 211.771 32.664C211.771 32.6213 211.782 32.5733 211.803 32.52L215.659 22.2C215.691 22.0933 215.75 22.0027 215.835 21.928C215.931 21.8427 216.059 21.8 216.219 21.8H217.963C218.123 21.8 218.246 21.8427 218.331 21.928C218.416 22.0027 218.48 22.0933 218.523 22.2L222.379 32.52C222.39 32.5733 222.395 32.6213 222.395 32.664C222.395 32.76 222.363 32.84 222.299 32.904C222.235 32.968 222.16 33 222.075 33H220.683C220.534 33 220.422 32.968 220.347 32.904C220.283 32.8293 220.24 32.76 220.219 32.696L219.467 30.744H214.715L213.963 32.696C213.942 32.76 213.894 32.8293 213.819 32.904C213.755 32.968 213.648 33 213.499 33H212.107ZM215.275 28.904H218.907L217.083 23.96L215.275 28.904ZM224.097 36.04C223.99 36.04 223.899 36.0027 223.825 35.928C223.75 35.8533 223.713 35.7627 223.713 35.656V25.064C223.713 24.9573 223.75 24.8667 223.825 24.792C223.899 24.7173 223.99 24.68 224.097 24.68H225.361C225.478 24.68 225.569 24.7173 225.633 24.792C225.707 24.8667 225.745 24.9573 225.745 25.064V25.704C226.001 25.3627 226.337 25.08 226.753 24.856C227.169 24.632 227.686 24.52 228.305 24.52C228.87 24.52 229.361 24.6107 229.777 24.792C230.193 24.9733 230.539 25.2347 230.817 25.576C231.094 25.9067 231.307 26.3013 231.457 26.76C231.606 27.2187 231.691 27.7253 231.713 28.28C231.723 28.4613 231.729 28.648 231.729 28.84C231.729 29.032 231.723 29.224 231.713 29.416C231.702 29.9493 231.622 30.4453 231.473 30.904C231.323 31.352 231.105 31.7467 230.817 32.088C230.539 32.4187 230.193 32.68 229.777 32.872C229.361 33.064 228.87 33.16 228.305 33.16C227.729 33.16 227.238 33.0587 226.833 32.856C226.427 32.6427 226.097 32.3653 225.841 32.024V35.656C225.841 35.7627 225.803 35.8533 225.729 35.928C225.665 36.0027 225.574 36.04 225.457 36.04H224.097ZM227.713 31.448C228.171 31.448 228.529 31.352 228.785 31.16C229.041 30.9573 229.222 30.696 229.329 30.376C229.446 30.056 229.515 29.704 229.537 29.32C229.558 29 229.558 28.68 229.537 28.36C229.515 27.976 229.446 27.624 229.329 27.304C229.222 26.984 229.041 26.728 228.785 26.536C228.529 26.3333 228.171 26.232 227.713 26.232C227.275 26.232 226.918 26.3333 226.641 26.536C226.374 26.7387 226.177 27 226.049 27.32C225.931 27.6293 225.862 27.9493 225.841 28.28C225.83 28.472 225.825 28.6747 225.825 28.888C225.825 29.1013 225.83 29.3093 225.841 29.512C225.851 29.832 225.926 30.1413 226.065 30.44C226.203 30.728 226.406 30.968 226.673 31.16C226.939 31.352 227.286 31.448 227.713 31.448ZM233.925 36.04C233.818 36.04 233.727 36.0027 233.653 35.928C233.578 35.8533 233.541 35.7627 233.541 35.656V25.064C233.541 24.9573 233.578 24.8667 233.653 24.792C233.727 24.7173 233.818 24.68 233.925 24.68H235.189C235.306 24.68 235.397 24.7173 235.461 24.792C235.535 24.8667 235.573 24.9573 235.573 25.064V25.704C235.829 25.3627 236.165 25.08 236.581 24.856C236.997 24.632 237.514 24.52 238.133 24.52C238.698 24.52 239.189 24.6107 239.605 24.792C240.021 24.9733 240.367 25.2347 240.645 25.576C240.922 25.9067 241.135 26.3013 241.285 26.76C241.434 27.2187 241.519 27.7253 241.541 28.28C241.551 28.4613 241.557 28.648 241.557 28.84C241.557 29.032 241.551 29.224 241.541 29.416C241.53 29.9493 241.45 30.4453 241.301 30.904C241.151 31.352 240.933 31.7467 240.645 32.088C240.367 32.4187 240.021 32.68 239.605 32.872C239.189 33.064 238.698 33.16 238.133 33.16C237.557 33.16 237.066 33.0587 236.661 32.856C236.255 32.6427 235.925 32.3653 235.669 32.024V35.656C235.669 35.7627 235.631 35.8533 235.557 35.928C235.493 36.0027 235.402 36.04 235.285 36.04H233.925ZM237.541 31.448C237.999 31.448 238.357 31.352 238.613 31.16C238.869 30.9573 239.05 30.696 239.157 30.376C239.274 30.056 239.343 29.704 239.365 29.32C239.386 29 239.386 28.68 239.365 28.36C239.343 27.976 239.274 27.624 239.157 27.304C239.05 26.984 238.869 26.728 238.613 26.536C238.357 26.3333 237.999 26.232 237.541 26.232C237.103 26.232 236.746 26.3333 236.469 26.536C236.202 26.7387 236.005 27 235.877 27.32C235.759 27.6293 235.69 27.9493 235.669 28.28C235.658 28.472 235.653 28.6747 235.653 28.888C235.653 29.1013 235.658 29.3093 235.669 29.512C235.679 29.832 235.754 30.1413 235.893 30.44C236.031 30.728 236.234 30.968 236.501 31.16C236.767 31.352 237.114 31.448 237.541 31.448ZM243.753 33C243.646 33 243.556 32.9627 243.481 32.888C243.406 32.8133 243.369 32.7227 243.369 32.616V22.024C243.369 21.9173 243.406 21.8267 243.481 21.752C243.556 21.6773 243.646 21.64 243.753 21.64H245.081C245.188 21.64 245.278 21.6773 245.353 21.752C245.428 21.8267 245.465 21.9173 245.465 22.024V32.616C245.465 32.7227 245.428 32.8133 245.353 32.888C245.278 32.9627 245.188 33 245.081 33H243.753ZM251.171 33.16C249.987 33.16 249.049 32.8187 248.355 32.136C247.662 31.4533 247.289 30.4827 247.235 29.224C247.225 29.1173 247.219 28.984 247.219 28.824C247.219 28.6533 247.225 28.52 247.235 28.424C247.278 27.624 247.459 26.9307 247.779 26.344C248.11 25.7573 248.563 25.3093 249.139 25C249.715 24.68 250.393 24.52 251.171 24.52C252.035 24.52 252.761 24.7013 253.347 25.064C253.934 25.416 254.377 25.912 254.675 26.552C254.974 27.1813 255.123 27.912 255.123 28.744V29.08C255.123 29.1867 255.086 29.2773 255.011 29.352C254.937 29.4267 254.841 29.464 254.723 29.464H249.411C249.411 29.464 249.411 29.48 249.411 29.512C249.411 29.544 249.411 29.5707 249.411 29.592C249.422 29.9653 249.491 30.312 249.619 30.632C249.758 30.9413 249.955 31.192 250.211 31.384C250.478 31.576 250.793 31.672 251.155 31.672C251.454 31.672 251.705 31.6293 251.907 31.544C252.11 31.448 252.275 31.3413 252.403 31.224C252.531 31.1067 252.622 31.0107 252.675 30.936C252.771 30.808 252.846 30.7333 252.899 30.712C252.963 30.68 253.054 30.664 253.171 30.664H254.547C254.654 30.664 254.739 30.696 254.803 30.76C254.878 30.824 254.91 30.904 254.899 31C254.889 31.1707 254.798 31.3787 254.627 31.624C254.467 31.8693 254.233 32.1093 253.923 32.344C253.614 32.5787 253.225 32.776 252.755 32.936C252.297 33.0853 251.769 33.16 251.171 33.16ZM249.411 28.12H252.947V28.072C252.947 27.656 252.878 27.2933 252.739 26.984C252.601 26.6747 252.398 26.4293 252.131 26.248C251.865 26.0667 251.545 25.976 251.171 25.976C250.798 25.976 250.478 26.0667 250.211 26.248C249.945 26.4293 249.742 26.6747 249.603 26.984C249.475 27.2933 249.411 27.656 249.411 28.072V28.12Z" fill="white"/>
</svg>
